<?xml version="1.0" standalone="no"?>
<!DOCTYPE svg PUBLIC "-//W3C//DTD SVG 20010904//EN"
 "http://www.w3.org/TR/2001/REC-SVG-20010904/DTD/svg10.dtd">
<svg version="1.0" xmlns="http://www.w3.org/2000/svg"
 width="106.000000pt" height="106.000000pt" viewBox="0 0 106.000000 106.000000"
 preserveAspectRatio="xMidYMid meet">
<metadata>
Created by potrace 1.11, written by Peter Selinger 2001-2013
</metadata>
<g transform="translate(0.000000,106.000000) scale(0.100000,-0.100000)"
fill="#000000" stroke="none">
<path d="M304 909 c-120 -78 -225 -147 -233 -154 -12 -11 -2 -21 60 -61 41
-26 112 -72 159 -102 47 -31 121 -79 165 -107 l81 -52 104 68 c313 203 342
220 338 197 -2 -16 -60 -58 -222 -163 l-219 -142 -101 64 c-56 35 -163 105
-239 154 -76 49 -140 89 -142 89 -3 0 -5 -27 -5 -59 l0 -59 83 -53 c45 -29
153 -99 241 -157 l158 -103 62 37 c33 21 132 84 218 141 87 57 160 103 163
103 3 0 5 -8 5 -18 0 -13 -64 -60 -217 -158 -119 -76 -220 -140 -224 -142 -6
-2 -341 209 -439 277 -51 35 -50 36 -50 -31 l1 -63 130 -83 130 -83 32 20 c26
16 35 17 49 7 15 -11 11 -15 -29 -40 -25 -15 -51 -25 -57 -23 -6 3 -64 39
-129 81 -64 42 -119 76 -122 76 -3 0 -5 -27 -5 -59 l0 -59 125 -81 c69 -45
130 -81 135 -81 6 0 47 24 93 53 71 46 89 54 132 54 43 0 61 -8 132 -54 46
-29 87 -53 93 -53 6 0 56 29 111 65 55 36 102 65 104 65 3 0 5 -8 5 -17 0 -18
-198 -156 -223 -156 -7 0 -58 30 -115 66 -56 37 -105 67 -107 67 -3 0 -54 -31
-113 -70 l-109 -70 -129 85 c-99 65 -130 81 -132 69 -5 -22 5 -30 140 -117
l117 -76 87 55 c48 30 98 63 112 73 l25 18 113 -73 112 -73 119 75 c65 42 124
81 131 88 9 8 12 32 10 70 l-3 56 -129 -83 -130 -84 -79 51 c-69 43 -77 51
-62 62 14 10 27 6 81 -28 l64 -40 83 52 c45 29 103 67 130 83 l47 30 0 60 c0
70 3 70 -102 -1 -123 -82 -168 -106 -180 -94 -7 7 33 39 136 106 l146 96 0 60
c0 46 -3 59 -12 54 -7 -4 -113 -72 -235 -151 -122 -78 -227 -144 -232 -145 -6
-2 -109 60 -230 137 -158 101 -220 146 -224 162 -5 28 -16 34 235 -129 112
-72 208 -131 213 -131 6 0 55 29 110 64 55 36 162 105 238 154 l137 89 0 59
c0 45 -3 58 -13 54 -7 -3 -78 -47 -158 -99 -266 -174 -309 -200 -322 -195 -7
3 -74 44 -148 93 -73 48 -164 106 -201 129 l-66 41 188 122 c103 67 190 122
194 122 3 0 6 -8 6 -19 0 -13 -42 -45 -137 -106 -76 -49 -148 -96 -159 -105
-21 -15 -16 -19 149 -125 94 -61 174 -111 178 -113 7 -3 473 295 476 306 2 4
-45 37 -103 75 l-106 67 -82 -52 c-200 -128 -257 -167 -255 -175 3 -11 61 -53
74 -53 6 0 67 36 136 80 120 78 139 86 146 63 3 -9 -266 -193 -282 -193 -3 0
-42 24 -86 54 l-80 53 81 53 c54 36 80 59 80 72 0 19 0 19 -27 0 -16 -10 -65
-43 -111 -72 l-83 -54 112 -72 c62 -40 118 -70 123 -67 84 48 336 218 334 225
-2 5 -21 19 -43 32 l-40 24 -125 -79 c-118 -75 -149 -87 -157 -64 -2 8 241
168 279 183 9 4 158 -88 158 -98 0 -9 -404 -270 -416 -270 -5 0 -74 42 -152
94 l-144 93 146 93 146 94 0 58 c0 32 -2 58 -3 58 -2 0 -102 -64 -223 -141z
m-60 -534 c52 -33 95 -63 96 -66 1 -26 -44 -9 -142 54 -84 54 -112 77 -110 90
4 17 5 17 32 0 15 -10 71 -45 124 -78z m728 -26 c-9 -9 -62 -45 -117 -80
l-100 -65 -46 32 c-40 26 -44 32 -30 41 12 8 24 6 49 -9 l32 -20 108 70 c72
47 109 66 114 59 4 -7 0 -19 -10 -28z m-665 -176 c12 -5 14 -3 8 7 -6 9 -4 11
4 6 7 -5 34 7 66 27 44 30 56 34 70 23 15 -11 7 -18 -62 -62 l-78 -50 -41 25
c-173 110 -191 124 -187 141 4 15 20 8 104 -46 55 -36 107 -68 116 -71z"/>
</g>
</svg>
